<svg width="437" height="127" viewBox="0 0 437 127" fill="none" xmlns="http://www.w3.org/2000/svg">
<rect width="127.395" height="126.942" transform="matrix(-1 0 1.10695e-10 1 127.395 0)" fill="#4064E0"/>
<rect width="48.4848" height="48.6619" transform="matrix(4.38121e-08 1 1 -4.36109e-08 51.0112 39.0664)" fill="#F6C547" stroke="white" stroke-width="6"/>
<path d="M69.0112 49.0664L69.0112 79.0388L99.0905 79.0388L99.0905 49.0664L69.0112 49.0664Z" stroke="white" stroke-width="6"/>
<rect width="18.5076" height="18.5785" transform="matrix(4.38121e-08 1 1 -4.36109e-08 81.0112 55.0664)" fill="white"/>
<rect width="78.4572" height="78.734" transform="matrix(4.38121e-08 1 1 -4.36109e-08 21.0112 24.0664)" stroke="white" stroke-width="6"/>
<path d="M157.182 60.9512L148.222 61C148.059 61 147.978 60.9186 147.978 60.7559L148.075 26.4053C148.075 26.2751 148.14 26.21 148.271 26.21L157.621 26.1611C159.477 26.1123 161.153 26.5355 162.65 27.4307C164.164 28.3258 165.368 29.5384 166.264 31.0684C167.175 32.582 167.631 34.2585 167.631 36.0977V50.4531C167.631 52.3737 167.167 54.1315 166.239 55.7266C165.295 57.3053 164.042 58.5667 162.479 59.5107C160.917 60.4385 159.151 60.9186 157.182 60.9512ZM157.621 32.1426L154.13 32.1914L154.081 54.8477H157.182C158.419 54.8477 159.46 54.4163 160.307 53.5537C161.153 52.6911 161.576 51.6576 161.576 50.4531V36.0488C161.576 34.9909 161.186 34.0713 160.404 33.29C159.623 32.4925 158.695 32.11 157.621 32.1426ZM169.877 60.7559L176.078 26.4053C176.111 26.2751 176.192 26.21 176.322 26.21H183.573C183.703 26.21 183.785 26.2751 183.817 26.4053L189.774 60.7559C189.791 60.9186 189.726 61 189.579 61H184.037C183.874 61 183.785 60.9186 183.769 60.7559L183.231 57.0938H176.42L175.883 60.7559C175.867 60.9186 175.785 61 175.639 61H170.072C169.942 61 169.877 60.9186 169.877 60.7559ZM179.667 37.709L177.421 51.7471H182.23L180.18 37.709L179.887 35.8535L179.667 37.709ZM203.568 61H197.929C197.782 61 197.709 60.9186 197.709 60.7559V32.2402H191.215C191.052 32.2402 190.971 32.1589 190.971 31.9961L191.02 26.4053C191.02 26.2751 191.085 26.21 191.215 26.21H210.209C210.388 26.21 210.478 26.2751 210.478 26.4053V31.9961C210.478 32.1589 210.412 32.2402 210.282 32.2402H203.715L203.764 60.7559C203.764 60.9186 203.699 61 203.568 61ZM211.234 60.7559L217.436 26.4053C217.468 26.2751 217.549 26.21 217.68 26.21H224.931C225.061 26.21 225.142 26.2751 225.175 26.4053L231.132 60.7559C231.148 60.9186 231.083 61 230.937 61H225.395C225.232 61 225.142 60.9186 225.126 60.7559L224.589 57.0938H217.777L217.24 60.7559C217.224 60.9186 217.143 61 216.996 61H211.43C211.299 61 211.234 60.9186 211.234 60.7559ZM221.024 37.709L218.778 51.7471H223.588L221.537 37.709L221.244 35.8535L221.024 37.709ZM256.449 61.4883C254.643 61.4883 252.991 61.0326 251.493 60.1211C250.012 59.2096 248.832 57.9889 247.953 56.459C247.09 54.9128 246.659 53.1956 246.659 51.3076L246.708 35.707C246.708 33.8516 247.131 32.1751 247.978 30.6777C248.824 29.1641 249.988 27.9515 251.469 27.04C252.966 26.1123 254.626 25.6484 256.449 25.6484C258.305 25.6484 259.957 26.096 261.405 26.9912C262.87 27.8864 264.034 29.099 264.896 30.6289C265.775 32.1426 266.215 33.8353 266.215 35.707V38.002C266.215 38.1322 266.15 38.1973 266.02 38.1973H260.404C260.274 38.1973 260.209 38.1322 260.209 38.002V35.707C260.209 34.6003 259.851 33.6481 259.135 32.8506C258.419 32.0531 257.523 31.6543 256.449 31.6543C255.261 31.6543 254.35 32.0612 253.715 32.875C253.08 33.6888 252.763 34.6328 252.763 35.707V51.3076C252.763 52.5283 253.121 53.5293 253.837 54.3105C254.553 55.0755 255.424 55.458 256.449 55.458C257.523 55.458 258.419 55.0348 259.135 54.1885C259.851 53.3258 260.209 52.3656 260.209 51.3076V48.9883C260.209 48.8581 260.274 48.793 260.404 48.793H266.068C266.199 48.793 266.264 48.8581 266.264 48.9883V51.3076C266.264 53.1794 265.824 54.8883 264.945 56.4346C264.05 57.9645 262.87 59.1934 261.405 60.1211C259.94 61.0326 258.288 61.4883 256.449 61.4883ZM279.154 61.4883C277.38 61.4883 275.744 61.0326 274.247 60.1211C272.766 59.2096 271.57 57.9971 270.658 56.4834C269.763 54.9535 269.315 53.277 269.315 51.4541L269.364 35.6094C269.364 33.7539 269.812 32.0856 270.707 30.6045C271.586 29.1071 272.774 27.9108 274.271 27.0156C275.769 26.1042 277.396 25.6484 279.154 25.6484C280.977 25.6484 282.613 26.096 284.062 26.9912C285.526 27.8864 286.698 29.0908 287.577 30.6045C288.472 32.1019 288.92 33.7702 288.92 35.6094L288.969 51.4541C288.969 53.277 288.529 54.9453 287.65 56.459C286.755 57.9889 285.567 59.2096 284.086 60.1211C282.605 61.0326 280.961 61.4883 279.154 61.4883ZM279.154 55.458C280.163 55.458 281.042 55.0511 281.791 54.2373C282.54 53.4072 282.914 52.4795 282.914 51.4541L282.865 35.6094C282.865 34.5026 282.515 33.5667 281.815 32.8018C281.116 32.0368 280.229 31.6543 279.154 31.6543C278.129 31.6543 277.25 32.0286 276.518 32.7773C275.785 33.526 275.419 34.4701 275.419 35.6094V51.4541C275.419 52.5446 275.785 53.4886 276.518 54.2861C277.25 55.0674 278.129 55.458 279.154 55.458ZM298.612 61H292.948C292.818 61 292.753 60.9186 292.753 60.7559L292.851 26.4053C292.851 26.2751 292.916 26.21 293.046 26.21H299.149C299.28 26.21 299.394 26.2751 299.491 26.4053L304.057 32.9971L308.598 26.4053C308.695 26.2751 308.817 26.21 308.964 26.21H315.092C315.238 26.21 315.312 26.2751 315.312 26.4053L315.409 60.7559C315.409 60.9186 315.344 61 315.214 61H309.55C309.42 61 309.354 60.9186 309.354 60.7559L309.306 35.2432L304.057 42.8604L298.856 35.2432L298.808 60.7559C298.808 60.9186 298.743 61 298.612 61ZM325.517 61H319.853C319.69 61 319.608 60.9186 319.608 60.7559L319.657 26.4053C319.657 26.2751 319.722 26.21 319.853 26.21H325.468C325.598 26.21 325.663 26.2751 325.663 26.4053L325.712 60.7559C325.712 60.9186 325.647 61 325.517 61ZM339.311 61.4883C337.504 61.4883 335.852 61.0326 334.354 60.1211C332.873 59.2096 331.693 57.9889 330.814 56.459C329.952 54.9128 329.521 53.1956 329.521 51.3076L329.569 35.707C329.569 33.8516 329.993 32.1751 330.839 30.6777C331.685 29.1641 332.849 27.9515 334.33 27.04C335.827 26.1123 337.488 25.6484 339.311 25.6484C341.166 25.6484 342.818 26.096 344.267 26.9912C345.731 27.8864 346.895 29.099 347.758 30.6289C348.637 32.1426 349.076 33.8353 349.076 35.707V38.002C349.076 38.1322 349.011 38.1973 348.881 38.1973H343.266C343.135 38.1973 343.07 38.1322 343.07 38.002V35.707C343.07 34.6003 342.712 33.6481 341.996 32.8506C341.28 32.0531 340.385 31.6543 339.311 31.6543C338.122 31.6543 337.211 32.0612 336.576 32.875C335.941 33.6888 335.624 34.6328 335.624 35.707V51.3076C335.624 52.5283 335.982 53.5293 336.698 54.3105C337.414 55.0755 338.285 55.458 339.311 55.458C340.385 55.458 341.28 55.0348 341.996 54.1885C342.712 53.3258 343.07 52.3656 343.07 51.3076V48.9883C343.07 48.8581 343.135 48.793 343.266 48.793H348.93C349.06 48.793 349.125 48.8581 349.125 48.9883V51.3076C349.125 53.1794 348.686 54.8883 347.807 56.4346C346.911 57.9645 345.731 59.1934 344.267 60.1211C342.802 61.0326 341.15 61.4883 339.311 61.4883ZM361.259 61.4883C359.485 61.4883 357.849 61.0326 356.352 60.1211C354.87 59.2096 353.682 57.9971 352.787 56.4834C351.908 54.9535 351.469 53.277 351.469 51.4541V49.1592C351.469 48.9801 351.55 48.8906 351.713 48.8906H357.328C357.458 48.8906 357.523 48.9801 357.523 49.1592V51.4541C357.523 52.5446 357.89 53.4886 358.622 54.2861C359.354 55.0674 360.233 55.458 361.259 55.458C362.3 55.458 363.188 55.0592 363.92 54.2617C364.652 53.4479 365.019 52.512 365.019 51.4541C365.019 50.2334 364.221 49.1673 362.626 48.2559C362.366 48.0931 362.024 47.8978 361.601 47.6699C361.194 47.4258 360.705 47.1491 360.136 46.8398C359.566 46.5306 359.013 46.2295 358.476 45.9365C357.938 45.6273 357.418 45.3343 356.913 45.0576C355.09 43.9834 353.731 42.6406 352.836 41.0293C351.957 39.4017 351.518 37.5788 351.518 35.5605C351.518 33.7051 351.973 32.0286 352.885 30.5312C353.796 29.0501 354.984 27.8783 356.449 27.0156C357.93 26.1367 359.534 25.6973 361.259 25.6973C363.033 25.6973 364.66 26.1367 366.142 27.0156C367.623 27.9108 368.803 29.099 369.682 30.5801C370.577 32.0612 371.024 33.7214 371.024 35.5605V39.6621C371.024 39.7923 370.959 39.8574 370.829 39.8574H365.214C365.084 39.8574 365.019 39.7923 365.019 39.6621L364.97 35.5605C364.97 34.3887 364.604 33.4365 363.871 32.7041C363.139 31.9717 362.268 31.6055 361.259 31.6055C360.233 31.6055 359.354 31.9961 358.622 32.7773C357.89 33.5586 357.523 34.4863 357.523 35.5605C357.523 36.651 357.751 37.5625 358.207 38.2949C358.679 39.0273 359.534 39.7272 360.771 40.3945C360.901 40.4596 361.202 40.6224 361.674 40.8828C362.146 41.1432 362.667 41.4362 363.236 41.7617C363.822 42.071 364.351 42.3558 364.823 42.6162C365.295 42.8604 365.58 43.0068 365.678 43.0557C367.338 43.9834 368.648 45.1227 369.608 46.4736C370.585 47.8245 371.073 49.4847 371.073 51.4541C371.073 53.3584 370.634 55.0674 369.755 56.5811C368.86 58.0947 367.672 59.291 366.19 60.1699C364.709 61.0488 363.065 61.4883 361.259 61.4883ZM391.193 61H387.15C387.033 61 386.975 60.9414 386.975 60.8242L387.045 36.0918C387.045 35.998 387.092 35.9512 387.186 35.9512H398.717C398.834 35.9512 398.893 35.998 398.893 36.0918V40.1523C398.893 40.2461 398.846 40.293 398.752 40.293H391.369V45.8828H398.752C398.846 45.8828 398.893 45.9414 398.893 46.0586L398.928 50.1367C398.928 50.2305 398.869 50.2773 398.752 50.2773H391.369V60.8242C391.369 60.9414 391.311 61 391.193 61ZM408.789 61.3516C407.512 61.3516 406.334 61.0234 405.256 60.3672C404.189 59.7109 403.328 58.8379 402.672 57.748C402.027 56.6465 401.705 55.4395 401.705 54.127L401.74 42.7188C401.74 41.3828 402.062 40.1816 402.707 39.1152C403.34 38.0371 404.195 37.1758 405.273 36.5312C406.352 35.875 407.523 35.5469 408.789 35.5469C410.102 35.5469 411.279 35.8691 412.322 36.5137C413.377 37.1582 414.221 38.0254 414.854 39.1152C415.498 40.1934 415.82 41.3945 415.82 42.7188L415.855 54.127C415.855 55.4395 415.539 56.6406 414.906 57.7305C414.262 58.832 413.406 59.7109 412.34 60.3672C411.273 61.0234 410.09 61.3516 408.789 61.3516ZM408.789 57.0098C409.516 57.0098 410.148 56.7168 410.688 56.1309C411.227 55.5332 411.496 54.8652 411.496 54.127L411.461 42.7188C411.461 41.9219 411.209 41.248 410.705 40.6973C410.201 40.1465 409.562 39.8711 408.789 39.8711C408.051 39.8711 407.418 40.1406 406.891 40.6797C406.363 41.2188 406.1 41.8984 406.1 42.7188V54.127C406.1 54.9121 406.363 55.5918 406.891 56.166C407.418 56.7285 408.051 57.0098 408.789 57.0098ZM422.799 61H418.721C418.627 61 418.58 60.9414 418.58 60.8242L418.65 36.0918C418.65 35.998 418.697 35.9512 418.791 35.9512H426.068C427.369 35.9512 428.564 36.2676 429.654 36.9004C430.744 37.5332 431.611 38.3828 432.256 39.4492C432.912 40.5156 433.24 41.7227 433.24 43.0703C433.24 43.9492 433.105 44.7461 432.836 45.4609C432.566 46.1758 432.25 46.7793 431.887 47.2715C431.535 47.7637 431.213 48.127 430.92 48.3613C432.221 49.8027 432.871 51.4961 432.871 53.4414L432.906 60.8242C432.906 60.9414 432.848 61 432.73 61H428.652C428.559 61 428.512 60.9648 428.512 60.8945V53.4414C428.512 52.5742 428.207 51.8242 427.598 51.1914C426.988 50.5586 426.238 50.2422 425.348 50.2422H422.975L422.939 60.8242C422.939 60.9414 422.893 61 422.799 61ZM426.068 40.2578H422.975V45.918H426.068C426.807 45.918 427.463 45.6426 428.037 45.0918C428.623 44.541 428.916 43.8672 428.916 43.0703C428.916 42.3086 428.635 41.6523 428.072 41.1016C427.51 40.5391 426.842 40.2578 426.068 40.2578Z" fill="#4064E0"/>
<path d="M157.182 103.488C155.375 103.488 153.723 103.033 152.226 102.121C150.744 101.21 149.564 99.9889 148.686 98.459C147.823 96.9128 147.392 95.1956 147.392 93.3076L147.44 77.707C147.44 75.8516 147.864 74.1751 148.71 72.6777C149.556 71.1641 150.72 69.9515 152.201 69.04C153.699 68.1123 155.359 67.6484 157.182 67.6484C159.037 67.6484 160.689 68.096 162.138 68.9912C163.603 69.8864 164.766 71.099 165.629 72.6289C166.508 74.1426 166.947 75.8353 166.947 77.707V80.002C166.947 80.1322 166.882 80.1973 166.752 80.1973H161.137C161.007 80.1973 160.941 80.1322 160.941 80.002V77.707C160.941 76.6003 160.583 75.6481 159.867 74.8506C159.151 74.0531 158.256 73.6543 157.182 73.6543C155.993 73.6543 155.082 74.0612 154.447 74.875C153.812 75.6888 153.495 76.6328 153.495 77.707V93.3076C153.495 94.5283 153.853 95.5293 154.569 96.3105C155.285 97.0755 156.156 97.458 157.182 97.458C158.256 97.458 159.151 97.0348 159.867 96.1885C160.583 95.3258 160.941 94.3656 160.941 93.3076V90.9883C160.941 90.8581 161.007 90.793 161.137 90.793H166.801C166.931 90.793 166.996 90.8581 166.996 90.9883V93.3076C166.996 95.1794 166.557 96.8883 165.678 98.4346C164.783 99.9645 163.603 101.193 162.138 102.121C160.673 103.033 159.021 103.488 157.182 103.488ZM186.991 103H170.829C170.699 103 170.634 102.919 170.634 102.756L170.683 68.4541C170.683 68.2913 170.764 68.21 170.927 68.21H176.493C176.656 68.21 176.737 68.2913 176.737 68.4541L176.688 96.8477H186.991C187.154 96.8477 187.235 96.929 187.235 97.0918V102.756C187.235 102.919 187.154 103 186.991 103ZM196.415 103H190.751C190.588 103 190.507 102.919 190.507 102.756L190.556 68.4053C190.556 68.2751 190.621 68.21 190.751 68.21H196.366C196.496 68.21 196.562 68.2751 196.562 68.4053L196.61 102.756C196.61 102.919 196.545 103 196.415 103ZM206.864 103H201.2C201.07 103 201.005 102.919 201.005 102.756L201.103 68.4053C201.103 68.2751 201.168 68.21 201.298 68.21H207.401C207.532 68.21 207.646 68.2751 207.743 68.4053L212.309 74.9971L216.85 68.4053C216.947 68.2751 217.069 68.21 217.216 68.21H223.344C223.49 68.21 223.563 68.2751 223.563 68.4053L223.661 102.756C223.661 102.919 223.596 103 223.466 103H217.802C217.672 103 217.606 102.919 217.606 102.756L217.558 77.2432L212.309 84.8604L207.108 77.2432L207.06 102.756C207.06 102.919 206.994 103 206.864 103ZM226.176 102.756L232.377 68.4053C232.41 68.2751 232.491 68.21 232.621 68.21H239.872C240.002 68.21 240.084 68.2751 240.116 68.4053L246.073 102.756C246.09 102.919 246.024 103 245.878 103H240.336C240.173 103 240.084 102.919 240.067 102.756L239.53 99.0938H232.719L232.182 102.756C232.165 102.919 232.084 103 231.938 103H226.371C226.241 103 226.176 102.919 226.176 102.756ZM235.966 79.709L233.72 93.7471H238.529L236.479 79.709L236.186 77.8535L235.966 79.709ZM259.867 103H254.228C254.081 103 254.008 102.919 254.008 102.756V74.2402H247.514C247.351 74.2402 247.27 74.1589 247.27 73.9961L247.318 68.4053C247.318 68.2751 247.383 68.21 247.514 68.21H266.508C266.687 68.21 266.776 68.2751 266.776 68.4053V73.9961C266.776 74.1589 266.711 74.2402 266.581 74.2402H260.014L260.062 102.756C260.062 102.919 259.997 103 259.867 103ZM285.575 103H269.413C269.283 103 269.218 102.919 269.218 102.756L269.267 68.4053C269.267 68.2751 269.332 68.21 269.462 68.21H285.526C285.657 68.21 285.722 68.2913 285.722 68.4541V74.0449C285.722 74.1751 285.657 74.2402 285.526 74.2402H275.272V82.0527H285.526C285.657 82.0527 285.722 82.1178 285.722 82.248L285.771 87.9121C285.771 88.0423 285.705 88.1074 285.575 88.1074H275.272V96.8477H285.575C285.705 96.8477 285.771 96.929 285.771 97.0918V102.805C285.771 102.935 285.705 103 285.575 103ZM312.406 103.488C310.6 103.488 308.948 103.033 307.45 102.121C305.969 101.21 304.789 99.9889 303.91 98.459C303.048 96.9128 302.616 95.1956 302.616 93.3076L302.665 77.707C302.665 75.8516 303.088 74.1751 303.935 72.6777C304.781 71.1641 305.945 69.9515 307.426 69.04C308.923 68.1123 310.583 67.6484 312.406 67.6484C314.262 67.6484 315.914 68.096 317.362 68.9912C318.827 69.8864 319.991 71.099 320.854 72.6289C321.732 74.1426 322.172 75.8353 322.172 77.707V80.002C322.172 80.1322 322.107 80.1973 321.977 80.1973H316.361C316.231 80.1973 316.166 80.1322 316.166 80.002V77.707C316.166 76.6003 315.808 75.6481 315.092 74.8506C314.376 74.0531 313.48 73.6543 312.406 73.6543C311.218 73.6543 310.307 74.0612 309.672 74.875C309.037 75.6888 308.72 76.6328 308.72 77.707V93.3076C308.72 94.5283 309.078 95.5293 309.794 96.3105C310.51 97.0755 311.381 97.458 312.406 97.458C313.48 97.458 314.376 97.0348 315.092 96.1885C315.808 95.3258 316.166 94.3656 316.166 93.3076V90.9883C316.166 90.8581 316.231 90.793 316.361 90.793H322.025C322.156 90.793 322.221 90.8581 322.221 90.9883V93.3076C322.221 95.1794 321.781 96.8883 320.902 98.4346C320.007 99.9645 318.827 101.193 317.362 102.121C315.897 103.033 314.245 103.488 312.406 103.488ZM331.718 103H326.054C325.924 103 325.858 102.919 325.858 102.756L325.907 68.4053C325.907 68.2751 325.989 68.21 326.151 68.21H331.718C331.881 68.21 331.962 68.2751 331.962 68.4053L331.913 82.0039H339.408V68.4053C339.408 68.2751 339.473 68.21 339.604 68.21H345.17C345.333 68.21 345.414 68.2751 345.414 68.4053L345.512 102.756C345.512 102.919 345.43 103 345.268 103H339.652C339.49 103 339.408 102.919 339.408 102.756V88.0586H331.913V102.756C331.913 102.919 331.848 103 331.718 103ZM347.904 102.756L354.105 68.4053C354.138 68.2751 354.219 68.21 354.35 68.21H361.601C361.731 68.21 361.812 68.2751 361.845 68.4053L367.802 102.756C367.818 102.919 367.753 103 367.606 103H362.064C361.902 103 361.812 102.919 361.796 102.756L361.259 99.0938H354.447L353.91 102.756C353.894 102.919 353.812 103 353.666 103H348.1C347.969 103 347.904 102.919 347.904 102.756ZM357.694 79.709L355.448 93.7471H360.258L358.207 79.709L357.914 77.8535L357.694 79.709ZM376.371 103H371.366C371.106 103 370.976 102.886 370.976 102.658L370.927 68.6006C370.927 68.3402 371.057 68.21 371.317 68.21H375.834L384.281 87.9121L384.037 68.6006C384.037 68.3402 384.184 68.21 384.477 68.21H389.433C389.628 68.21 389.726 68.3402 389.726 68.6006L389.774 102.707C389.774 102.902 389.693 103 389.53 103H385.136L376.469 84.5918L376.835 102.609C376.835 102.87 376.68 103 376.371 103ZM403.275 103.488C401.469 103.488 399.841 103.041 398.393 102.146C396.928 101.25 395.748 100.046 394.853 98.5322C393.974 97.0186 393.534 95.3258 393.534 93.4541V77.6094C393.534 75.7865 393.982 74.1263 394.877 72.6289C395.756 71.1152 396.936 69.9108 398.417 69.0156C399.898 68.1042 401.518 67.6484 403.275 67.6484C405.115 67.6484 406.775 68.0879 408.256 68.9668C409.737 69.862 410.909 71.0583 411.771 72.5557C412.65 74.0531 413.09 75.7376 413.09 77.6094V79.9043C413.09 80.0345 413.008 80.0996 412.846 80.0996H407.23C407.1 80.0996 407.035 80.0345 407.035 79.9043V78C407.035 76.7305 406.677 75.6807 405.961 74.8506C405.245 74.0205 404.35 73.6055 403.275 73.6055C402.315 73.6055 401.461 74.0042 400.712 74.8018C399.963 75.5993 399.589 76.5352 399.589 77.6094V93.4541C399.589 94.5446 399.955 95.4886 400.688 96.2861C401.42 97.0674 402.283 97.458 403.275 97.458C404.35 97.458 405.245 97.0755 405.961 96.3105C406.677 95.5293 407.035 94.5771 407.035 93.4541V90.9883H403.544C403.365 90.9883 403.275 90.9069 403.275 90.7441V85.1533C403.275 84.9906 403.365 84.9092 403.544 84.9092H412.895C413.025 84.9092 413.09 84.9906 413.09 85.1533V93.4541C413.09 95.3258 412.65 97.0186 411.771 98.5322C410.876 100.046 409.696 101.25 408.231 102.146C406.767 103.041 405.115 103.488 403.275 103.488ZM432.987 103H416.825C416.695 103 416.63 102.919 416.63 102.756L416.679 68.4053C416.679 68.2751 416.744 68.21 416.874 68.21H432.938C433.069 68.21 433.134 68.2913 433.134 68.4541V74.0449C433.134 74.1751 433.069 74.2402 432.938 74.2402H422.685V82.0527H432.938C433.069 82.0527 433.134 82.1178 433.134 82.248L433.183 87.9121C433.183 88.0423 433.118 88.1074 432.987 88.1074H422.685V96.8477H432.987C433.118 96.8477 433.183 96.929 433.183 97.0918V102.805C433.183 102.935 433.118 103 432.987 103Z" fill="#F6C547"/>
</svg>
